<!--?xml version="1.0" encoding="utf-8"?-->
<!-- Svg Vector Icons : http://www.onlinewebfonts.com/icon -->

<svg version="1.1" xmlns="http://www.w3.org/2000/svg" xmlns:xlink="http://www.w3.org/1999/xlink" x="0px" y="0px" viewBox="0 0 256 256" enable-background="new 0 0 256 256" xml:space="preserve">
<metadata> Svg Vector Icons : http://www.onlinewebfonts.com/icon </metadata>
<g><g><g><path fill="#444444" data-title="Layer 0" xs="0" d="M37.2,64.5v54.5h27.9c27.6,0,27.9,0,28.1-1.1c0.2-0.7,1.2-3,2.2-5.2c5.1-10.7,13.8-17.5,25.4-20.1c15.4-3.4,31.9,4.5,39,18.8c1.4,2.7,2.7,5.6,2.8,6.2l0.3,1.3h27.9h27.9V64.5V10h-18.2h-18.2v18.2v18.2H128H73.5V28.2V10H55.4H37.2L37.2,64.5L37.2,64.5z"/><path fill="#444444" data-title="Layer 1" xs="1" d="M91.7,19.1v9.1H128h36.3v-9.1V10H128H91.7V19.1z"/><path fill="#444444" data-title="Layer 2" xs="2" d="M123.5,110.4c-3.2,1-6.1,3-8.5,5.6l-2.6,2.7l7.8,0.2c4.3,0.1,11.3,0.1,15.6,0l7.8-0.2l-2.6-2.7c-3.5-3.9-7.2-5.6-12.2-5.8C126.7,110,124.3,110.1,123.5,110.4z"/><path fill="#444444" data-title="Layer 3" xs="3" d="M37.2,191.5V246h18.2h18.2v-18.2v-18.2H128h54.5v18.2V246h18.2h18.2v-54.5v-54.5H191c-26,0-27.9,0.1-28.2,1c-4,11.9-12.2,20.4-23.6,24.5c-3.6,1.2-5,1.5-11.2,1.5c-6.2,0-7.6-0.2-11.2-1.5c-9.3-3.3-16.5-9.5-20.7-17.9c-1.4-2.7-2.6-5.5-2.8-6.2l-0.3-1.2H65.1H37.2V191.5z"/><path fill="#444444" data-title="Layer 4" xs="4" d="M113.2,138.2c1.1,2,5.8,5.7,8.9,6.9c6.2,2.3,12.9,0.8,17.9-3.9c1.5-1.5,2.8-3,2.8-3.3c0-0.5-3.9-0.7-15-0.7C113.1,137.1,112.7,137.1,113.2,138.2z"/><path fill="#444444" data-title="Layer 5" xs="5" d="M91.7,236.9v9.1H128h36.3v-9.1v-9.1H128H91.7V236.9z"/></g></g></g>
</svg>